<svg width="15" height="15" viewBox="0 0 15 15" fill="none" xmlns="http://www.w3.org/2000/svg">
<path d="M7.10088 3.10146V1.90146C7.10088 1.79538 7.14303 1.69364 7.21804 1.61862C7.29306 1.54361 7.3948 1.50146 7.50089 1.50146C7.60697 1.50146 7.70871 1.54361 7.78373 1.61862C7.85874 1.69364 7.90089 1.79538 7.90089 1.90146V3.10146C7.90089 3.20755 7.85874 3.30929 7.78373 3.38431C7.70871 3.45932 7.60697 3.50146 7.50089 3.50146C7.3948 3.50146 7.29306 3.45932 7.21804 3.38431C7.14303 3.30929 7.10088 3.20755 7.10088 3.10146ZM10.7009 7.50146C10.7009 8.13437 10.5132 8.75305 10.1616 9.27929C9.80997 9.80553 9.3102 10.2157 8.72547 10.4579C8.14075 10.7001 7.49734 10.7635 6.8766 10.64C6.25586 10.5165 5.68567 10.2117 5.23814 9.76421C4.79062 9.31668 4.48584 8.74649 4.36237 8.12575C4.2389 7.50501 4.30227 6.8616 4.54447 6.27688C4.78667 5.69215 5.19682 5.19238 5.72306 4.84076C6.2493 4.48914 6.86798 4.30146 7.50089 4.30146C8.34929 4.30239 9.16269 4.63983 9.7626 5.23975C10.3625 5.83966 10.7 6.65306 10.7009 7.50146ZM9.90089 7.50146C9.90089 7.02679 9.76013 6.56277 9.49641 6.1681C9.2327 5.77342 8.85787 5.4658 8.41933 5.28415C7.98078 5.1025 7.49822 5.05498 7.03267 5.14758C6.56711 5.24019 6.13947 5.46876 5.80383 5.80441C5.46818 6.14005 5.23961 6.56769 5.147 7.03325C5.0544 7.4988 5.10192 7.98136 5.28357 8.41991C5.46522 8.85845 5.77284 9.23328 6.16752 9.49699C6.56219 9.76071 7.02621 9.90147 7.50089 9.90147C8.1372 9.9008 8.74727 9.64773 9.19721 9.19779C9.64715 8.74785 9.90022 8.13778 9.90089 7.50146ZM4.01788 4.58447C4.09294 4.65952 4.19474 4.70169 4.30088 4.70169C4.40703 4.70169 4.50883 4.65952 4.58389 4.58447C4.65894 4.50941 4.70111 4.40761 4.70111 4.30146C4.70111 4.19532 4.65894 4.09352 4.58389 4.01846L3.78389 3.21846C3.70883 3.14341 3.60703 3.10124 3.50089 3.10124C3.39474 3.10124 3.29294 3.14341 3.21789 3.21846C3.14283 3.29352 3.10066 3.39532 3.10066 3.50146C3.10066 3.60761 3.14283 3.70941 3.21789 3.78446L4.01788 4.58447ZM4.01788 10.4185L3.21789 11.2185C3.14283 11.2935 3.10066 11.3953 3.10066 11.5015C3.10066 11.6076 3.14283 11.7094 3.21789 11.7845C3.29294 11.8595 3.39474 11.9017 3.50089 11.9017C3.60703 11.9017 3.70883 11.8595 3.78389 11.7845L4.58389 10.9845C4.62105 10.9473 4.65053 10.9032 4.67064 10.8546C4.69076 10.8061 4.70111 10.754 4.70111 10.7015C4.70111 10.6489 4.69076 10.5969 4.67064 10.5483C4.65053 10.4997 4.62105 10.4556 4.58389 10.4185C4.54672 10.3813 4.5026 10.3518 4.45404 10.3317C4.40549 10.3116 4.35344 10.3012 4.30088 10.3012C4.24833 10.3012 4.19628 10.3116 4.14773 10.3317C4.09917 10.3518 4.05505 10.3813 4.01788 10.4185ZM10.7009 4.70146C10.7534 4.70151 10.8055 4.69119 10.854 4.67112C10.9026 4.65104 10.9467 4.6216 10.9839 4.58447L11.7839 3.78446C11.8589 3.70941 11.9011 3.60761 11.9011 3.50146C11.9011 3.39532 11.8589 3.29352 11.7839 3.21846C11.7088 3.14341 11.607 3.10124 11.5009 3.10124C11.3947 3.10124 11.2929 3.14341 11.2179 3.21846L10.4179 4.01846C10.3619 4.07441 10.3237 4.14571 10.3083 4.22334C10.2928 4.30098 10.3007 4.38145 10.331 4.45458C10.3613 4.52771 10.4127 4.5902 10.4785 4.63415C10.5443 4.6781 10.6217 4.70153 10.7009 4.70146ZM10.9839 10.4185C10.9088 10.3434 10.807 10.3012 10.7009 10.3012C10.5947 10.3012 10.4929 10.3434 10.4179 10.4185C10.3428 10.4935 10.3007 10.5953 10.3007 10.7015C10.3007 10.8076 10.3428 10.9094 10.4179 10.9845L11.2179 11.7845C11.255 11.8216 11.2992 11.8511 11.3477 11.8712C11.3963 11.8913 11.4483 11.9017 11.5009 11.9017C11.5534 11.9017 11.6055 11.8913 11.654 11.8712C11.7026 11.8511 11.7467 11.8216 11.7839 11.7845C11.821 11.7473 11.8505 11.7032 11.8706 11.6546C11.8908 11.6061 11.9011 11.554 11.9011 11.5015C11.9011 11.4489 11.8908 11.3969 11.8706 11.3483C11.8505 11.2997 11.821 11.2556 11.7839 11.2185L10.9839 10.4185ZM3.50089 7.50146C3.50089 7.39538 3.45874 7.29364 3.38373 7.21862C3.30871 7.14361 3.20697 7.10146 3.10089 7.10146H1.90089C1.7948 7.10146 1.69306 7.14361 1.61804 7.21862C1.54303 7.29364 1.50089 7.39538 1.50089 7.50146C1.50089 7.60755 1.54303 7.70929 1.61804 7.78431C1.69306 7.85932 1.7948 7.90146 1.90089 7.90146H3.10089C3.20697 7.90146 3.30871 7.85932 3.38373 7.78431C3.45874 7.70929 3.50089 7.60755 3.50089 7.50146ZM7.50089 11.5015C7.3948 11.5015 7.29306 11.5436 7.21804 11.6186C7.14303 11.6936 7.10088 11.7954 7.10088 11.9015V13.1015C7.10088 13.2076 7.14303 13.3093 7.21804 13.3843C7.29306 13.4593 7.3948 13.5015 7.50089 13.5015C7.60697 13.5015 7.70871 13.4593 7.78373 13.3843C7.85874 13.3093 7.90089 13.2076 7.90089 13.1015V11.9015C7.90089 11.7954 7.85874 11.6936 7.78373 11.6186C7.70871 11.5436 7.60697 11.5015 7.50089 11.5015ZM13.1009 7.10146H11.9009C11.7948 7.10146 11.6931 7.14361 11.618 7.21862C11.543 7.29364 11.5009 7.39538 11.5009 7.50146C11.5009 7.60755 11.543 7.70929 11.618 7.78431C11.6931 7.85932 11.7948 7.90146 11.9009 7.90146H13.1009C13.207 7.90146 13.3087 7.85932 13.3837 7.78431C13.4587 7.70929 13.5009 7.60755 13.5009 7.50146C13.5009 7.39538 13.4587 7.29364 13.3837 7.21862C13.3087 7.14361 13.207 7.10146 13.1009 7.10146Z" fill="#666666"/>
</svg>
