<svg width="19" height="19" viewBox="0 0 19 19" fill="none" xmlns="http://www.w3.org/2000/svg">
<path d="M15.6875 3.875H12.875V3.3125C12.875 2.86495 12.6972 2.43572 12.3807 2.11926C12.0643 1.80279 11.6351 1.625 11.1875 1.625H7.8125C7.36495 1.625 6.93572 1.80279 6.61926 2.11926C6.30279 2.43572 6.125 2.86495 6.125 3.3125V3.875H3.3125C3.16332 3.875 3.02024 3.93426 2.91475 4.03975C2.80926 4.14524 2.75 4.28832 2.75 4.4375C2.75 4.58668 2.80926 4.72976 2.91475 4.83525C3.02024 4.94074 3.16332 5 3.3125 5H3.875V15.125C3.875 15.4234 3.99353 15.7095 4.2045 15.9205C4.41548 16.1315 4.70163 16.25 5 16.25H14C14.2984 16.25 14.5845 16.1315 14.7955 15.9205C15.0065 15.7095 15.125 15.4234 15.125 15.125V5H15.6875C15.8367 5 15.9798 4.94074 16.0852 4.83525C16.1907 4.72976 16.25 4.58668 16.25 4.4375C16.25 4.28832 16.1907 4.14524 16.0852 4.03975C15.9798 3.93426 15.8367 3.875 15.6875 3.875ZM7.25 3.3125C7.25 3.16332 7.30926 3.02024 7.41475 2.91475C7.52024 2.80926 7.66332 2.75 7.8125 2.75H11.1875C11.3367 2.75 11.4798 2.80926 11.5852 2.91475C11.6907 3.02024 11.75 3.16332 11.75 3.3125V3.875H7.25V3.3125ZM14 15.125H5V5H14V15.125ZM8.375 7.8125V12.3125C8.375 12.4617 8.31574 12.6048 8.21025 12.7102C8.10476 12.8157 7.96168 12.875 7.8125 12.875C7.66332 12.875 7.52024 12.8157 7.41475 12.7102C7.30926 12.6048 7.25 12.4617 7.25 12.3125V7.8125C7.25 7.66332 7.30926 7.52024 7.41475 7.41475C7.52024 7.30926 7.66332 7.25 7.8125 7.25C7.96168 7.25 8.10476 7.30926 8.21025 7.41475C8.31574 7.52024 8.375 7.66332 8.375 7.8125ZM11.75 7.8125V12.3125C11.75 12.4617 11.6907 12.6048 11.5852 12.7102C11.4798 12.8157 11.3367 12.875 11.1875 12.875C11.0383 12.875 10.8952 12.8157 10.7898 12.7102C10.6843 12.6048 10.625 12.4617 10.625 12.3125V7.8125C10.625 7.66332 10.6843 7.52024 10.7898 7.41475C10.8952 7.30926 11.0383 7.25 11.1875 7.25C11.3367 7.25 11.4798 7.30926 11.5852 7.41475C11.6907 7.52024 11.75 7.66332 11.75 7.8125Z" fill="#C70000"/>
</svg>
