<svg width="15" height="15" viewBox="0 0 15 15" fill="none" xmlns="http://www.w3.org/2000/svg">
<path d="M13.6247 5.7502C13.6247 5.86623 13.5786 5.97751 13.4966 6.05955C13.4145 6.1416 13.3033 6.18769 13.1872 6.18769H12.3122V7.06268C12.3122 7.17871 12.2662 7.28999 12.1841 7.37204C12.1021 7.45408 11.9908 7.50017 11.8748 7.50017C11.7587 7.50017 11.6474 7.45408 11.5654 7.37204C11.4833 7.28999 11.4373 7.17871 11.4373 7.06268V6.18769H10.5623C10.4462 6.18769 10.335 6.1416 10.2529 6.05955C10.1709 5.97751 10.1248 5.86623 10.1248 5.7502C10.1248 5.63417 10.1709 5.52289 10.2529 5.44084C10.335 5.35879 10.4462 5.3127 10.5623 5.3127H11.4373V4.43771C11.4373 4.32168 11.4833 4.2104 11.5654 4.12836C11.6474 4.04631 11.7587 4.00022 11.8748 4.00022C11.9908 4.00022 12.1021 4.04631 12.1841 4.12836C12.2662 4.2104 12.3122 4.32168 12.3122 4.43771V5.3127H13.1872C13.3033 5.3127 13.4145 5.35879 13.4966 5.44084C13.5786 5.52289 13.6247 5.63417 13.6247 5.7502ZM8.37479 3.56272H8.81229V4.00022C8.81229 4.11625 8.85838 4.22753 8.94043 4.30957C9.02247 4.39162 9.13375 4.43771 9.24978 4.43771C9.36581 4.43771 9.47709 4.39162 9.55914 4.30957C9.64118 4.22753 9.68728 4.11625 9.68728 4.00022V3.56272H10.1248C10.2408 3.56272 10.3521 3.51663 10.4341 3.43458C10.5162 3.35254 10.5623 3.24126 10.5623 3.12523C10.5623 3.0092 10.5162 2.89792 10.4341 2.81587C10.3521 2.73383 10.2408 2.68773 10.1248 2.68773H9.68728V2.25024C9.68728 2.13421 9.64118 2.02293 9.55914 1.94088C9.47709 1.85884 9.36581 1.81274 9.24978 1.81274C9.13375 1.81274 9.02247 1.85884 8.94043 1.94088C8.85838 2.02293 8.81229 2.13421 8.81229 2.25024V2.68773H8.37479C8.25876 2.68773 8.14748 2.73383 8.06544 2.81587C7.98339 2.89792 7.9373 3.0092 7.9373 3.12523C7.9373 3.24126 7.98339 3.35254 8.06544 3.43458C8.14748 3.51663 8.25876 3.56272 8.37479 3.56272ZM12.3544 8.86735C12.4053 8.92664 12.4394 8.99849 12.4531 9.07542C12.4669 9.15236 12.4598 9.23158 12.4326 9.30484C12.129 10.1327 11.6218 10.8708 10.9577 11.451C10.2936 12.0312 9.49413 12.4348 8.63298 12.6245C7.77182 12.8142 6.87675 12.7839 6.03037 12.5365C5.18399 12.289 4.41357 11.8324 3.79022 11.2087C3.16686 10.585 2.71065 9.81429 2.46369 8.96778C2.21673 8.12126 2.18698 7.22617 2.37717 6.36512C2.56737 5.50407 2.97139 4.70479 3.55194 4.04106C4.1325 3.37733 4.87089 2.87053 5.69897 2.56742C5.77185 2.54073 5.85053 2.53391 5.92692 2.54766C6.00331 2.56141 6.07467 2.59523 6.13367 2.64566C6.19268 2.6961 6.2372 2.76132 6.26268 2.83464C6.28815 2.90796 6.29367 2.98673 6.27865 3.06289C6.12533 3.83887 6.1655 4.64068 6.3956 5.39746C6.6257 6.15424 7.03865 6.8427 7.59797 7.40201C8.15728 7.96133 8.84574 8.37428 9.60252 8.60438C10.3593 8.83448 11.1611 8.87465 11.9371 8.72133C12.0133 8.70643 12.0922 8.7121 12.1655 8.73776C12.2389 8.76342 12.304 8.80815 12.3544 8.86735ZM11.294 9.68109C11.1961 9.68601 11.0977 9.68874 10.9998 9.68874C9.49166 9.68715 8.0458 9.08728 6.97951 8.02079C5.91323 6.9543 5.31363 5.50832 5.31233 4.00022C5.31233 3.90233 5.31233 3.80389 5.31999 3.706C4.73789 4.04097 4.24073 4.50544 3.86701 5.06345C3.4933 5.62146 3.25306 6.25801 3.16493 6.9238C3.07679 7.58958 3.14311 8.26672 3.35876 8.90274C3.57441 9.53877 3.93359 10.1166 4.40848 10.5915C4.88337 11.0664 5.46121 11.4256 6.09724 11.6412C6.73326 11.8569 7.4104 11.9232 8.07618 11.8351C8.74197 11.7469 9.37852 11.5067 9.93653 11.133C10.4945 10.7593 10.959 10.2621 11.294 9.67999V9.68109Z" fill="#666666"/>
</svg>
