<svg width="219" height="137" viewBox="0 0 219 137" fill="none" xmlns="http://www.w3.org/2000/svg">
<g filter="url(#filter0_f_249_628)">
<g filter="url(#filter1_d_249_628)">
<rect x="8.86536" y="23.8042" width="192.806" height="102.46" rx="4.03782" transform="rotate(-5 8.86536 23.8042)" fill="#EEEEEE" shape-rendering="crispEdges"/>
<rect x="9.13876" y="24.0336" width="192.301" height="101.955" rx="3.78546" transform="rotate(-5 9.13876 24.0336)" stroke="#E4E4E4" stroke-width="0.504728" shape-rendering="crispEdges"/>
<rect x="11.0526" y="25.6394" width="8.07565" height="5.55201" rx="2.776" transform="rotate(-5 11.0526 25.6394)" fill="#D0D0D0"/>
<g clip-path="url(#clip0_249_628)">
<path d="M19.0738 26.8375C19.0789 26.8958 19.0606 26.9538 19.023 26.9987C18.9853 27.0435 18.9314 27.0716 18.8731 27.0767L18.4331 27.1152L18.4716 27.5551C18.4767 27.6135 18.4584 27.6715 18.4208 27.7163C18.3831 27.7612 18.3292 27.7893 18.2709 27.7944C18.2125 27.7995 18.1546 27.7812 18.1097 27.7435C18.0648 27.7059 18.0368 27.652 18.0317 27.5936L17.9932 27.1537L17.5532 27.1922C17.4949 27.1973 17.4369 27.179 17.392 27.1413C17.3472 27.1037 17.3191 27.0498 17.314 26.9914C17.3089 26.9331 17.3272 26.8751 17.3648 26.8303C17.4025 26.7854 17.4564 26.7573 17.5147 26.7522L17.9547 26.7137L17.9162 26.2738C17.9111 26.2154 17.9294 26.1575 17.967 26.1126C18.0047 26.0677 18.0586 26.0397 18.1169 26.0346C18.1753 26.0294 18.2332 26.0477 18.2781 26.0854C18.323 26.123 18.351 26.1769 18.3561 26.2353L18.3946 26.6752L18.8346 26.6367C18.8929 26.6316 18.9509 26.6499 18.9958 26.6876C19.0406 26.7252 19.0687 26.7791 19.0738 26.8375ZM16.3379 25.9685L16.5578 25.9493L16.5771 26.1693C16.5822 26.2276 16.6103 26.2815 16.6551 26.3192C16.7 26.3568 16.758 26.3751 16.8163 26.37C16.8747 26.3649 16.9286 26.3368 16.9662 26.292C17.0039 26.2471 17.0221 26.1891 17.017 26.1308L16.9978 25.9108L17.2178 25.8916C17.2761 25.8865 17.33 25.8584 17.3677 25.8135C17.4053 25.7687 17.4236 25.7107 17.4185 25.6523C17.4134 25.594 17.3853 25.5401 17.3405 25.5024C17.2956 25.4648 17.2376 25.4465 17.1793 25.4516L16.9593 25.4709L16.9401 25.2509C16.935 25.1925 16.9069 25.1386 16.862 25.101C16.8172 25.0633 16.7592 25.045 16.7008 25.0501C16.6425 25.0553 16.5886 25.0833 16.5509 25.1282C16.5133 25.173 16.495 25.231 16.5001 25.2894L16.5194 25.5093L16.2994 25.5286C16.241 25.5337 16.1871 25.5618 16.1495 25.6066C16.1118 25.6515 16.0935 25.7095 16.0986 25.7678C16.1038 25.8262 16.1318 25.8801 16.1767 25.9177C16.2215 25.9554 16.2795 25.9736 16.3379 25.9685ZM18.5722 28.4607C18.6004 28.4883 18.6207 28.5229 18.631 28.561C18.6413 28.599 18.6412 28.6392 18.6307 28.6772C18.5145 29.1069 18.2919 29.5003 17.9836 29.8212C17.6752 30.1421 17.291 30.3802 16.8663 30.5135C16.4417 30.6468 15.9903 30.6709 15.5538 30.5837C15.1174 30.4966 14.7099 30.3008 14.3691 30.0147C14.0282 29.7285 13.7649 29.361 13.6035 28.9463C13.4421 28.5315 13.3877 28.0828 13.4455 27.6414C13.5033 27.2001 13.6712 26.7805 13.9339 26.4212C14.1967 26.0619 14.5456 25.7746 14.9487 25.5858C14.9841 25.5692 15.0234 25.5623 15.0624 25.5658C15.1014 25.5694 15.1388 25.5833 15.1707 25.606C15.2026 25.6288 15.2278 25.6596 15.2439 25.6954C15.2599 25.7311 15.2661 25.7705 15.2619 25.8094C15.219 26.2063 15.2744 26.6077 15.4234 26.9781C15.5724 27.3485 15.8103 27.6765 16.1162 27.9331C16.422 28.1898 16.7863 28.3671 17.177 28.4495C17.5676 28.5319 17.9725 28.5168 18.3559 28.4056C18.3936 28.3948 18.4335 28.3942 18.4715 28.4038C18.5095 28.4135 18.5443 28.4331 18.5722 28.4607ZM18.0748 28.9165C18.0258 28.9233 17.9764 28.929 17.9272 28.9333C17.1688 28.9988 16.4155 28.7608 15.8324 28.2715C15.2494 27.7821 14.8843 27.0815 14.8173 26.3232C14.813 26.274 14.8086 26.2245 14.8082 26.175C14.5302 26.369 14.3007 26.6244 14.1373 26.9214C13.974 27.2184 13.8812 27.5491 13.8662 27.8877C13.8511 28.2263 13.9143 28.5639 14.0507 28.8742C14.1871 29.1845 14.3931 29.4593 14.6528 29.6771C14.9124 29.895 15.2188 30.0502 15.5481 30.1307C15.8774 30.2111 16.2207 30.2147 16.5516 30.1411C16.8825 30.0675 17.192 29.9187 17.4561 29.7062C17.7203 29.4938 17.9319 29.2234 18.0748 28.9159L18.0748 28.9165Z" fill="#D0D0D0"/>
</g>
<rect x="21.1088" y="24.7595" width="22.7128" height="5.55201" rx="2.776" transform="rotate(-5 21.1088 24.7595)" fill="#D0D0D0"/>
<g clip-path="url(#clip1_249_628)">
<path d="M29.13 25.9576C29.1351 26.0159 29.1168 26.0739 29.0791 26.1188C29.0415 26.1636 28.9876 26.1917 28.9292 26.1968L28.4893 26.2353L28.5278 26.6753C28.5329 26.7336 28.5146 26.7916 28.4769 26.8364C28.4393 26.8813 28.3854 26.9094 28.327 26.9145C28.2687 26.9196 28.2107 26.9013 28.1658 26.8637C28.121 26.826 28.0929 26.7721 28.0878 26.7137L28.0493 26.2738L27.6094 26.3123C27.551 26.3174 27.493 26.2991 27.4482 26.2615C27.4033 26.2238 27.3753 26.1699 27.3701 26.1116C27.365 26.0532 27.3833 25.9952 27.421 25.9504C27.4586 25.9055 27.5125 25.8774 27.5709 25.8723L28.0108 25.8338L27.9723 25.3939C27.9672 25.3356 27.9855 25.2776 28.0232 25.2327C28.0608 25.1878 28.1147 25.1598 28.1731 25.1547C28.2314 25.1496 28.2894 25.1678 28.3343 25.2055C28.3791 25.2431 28.4072 25.2971 28.4123 25.3554L28.4508 25.7954L28.8907 25.7569C28.9491 25.7518 29.0071 25.77 29.0519 25.8077C29.0968 25.8453 29.1248 25.8993 29.13 25.9576ZM26.394 25.0887L26.614 25.0694L26.6332 25.2894C26.6383 25.3477 26.6664 25.4017 26.7113 25.4393C26.7561 25.4769 26.8141 25.4952 26.8725 25.4901C26.9308 25.485 26.9847 25.4569 27.0224 25.4121C27.06 25.3672 27.0783 25.3092 27.0732 25.2509L27.0539 25.0309L27.2739 25.0117C27.3323 25.0066 27.3862 24.9785 27.4238 24.9336C27.4615 24.8888 27.4798 24.8308 27.4747 24.7725C27.4695 24.7141 27.4415 24.6602 27.3966 24.6225C27.3518 24.5849 27.2938 24.5666 27.2354 24.5717L27.0155 24.591L26.9962 24.371C26.9911 24.3127 26.963 24.2587 26.9182 24.2211C26.8733 24.1834 26.8153 24.1652 26.757 24.1703C26.6986 24.1754 26.6447 24.2034 26.6071 24.2483C26.5694 24.2932 26.5512 24.3511 26.5563 24.4095L26.5755 24.6295L26.3555 24.6487C26.2972 24.6538 26.2433 24.6819 26.2056 24.7267C26.168 24.7716 26.1497 24.8296 26.1548 24.8879C26.1599 24.9463 26.188 25.0002 26.2328 25.0378C26.2777 25.0755 26.3357 25.0938 26.394 25.0887ZM28.6283 27.5808C28.6565 27.6084 28.6768 27.643 28.6871 27.6811C28.6974 27.7192 28.6974 27.7593 28.6869 27.7973C28.5707 28.227 28.3481 28.6204 28.0397 28.9413C27.7314 29.2623 27.3471 29.5003 26.9225 29.6336C26.4978 29.7669 26.0464 29.791 25.61 29.7039C25.1735 29.6167 24.7661 29.421 24.4252 29.1348C24.0843 28.8486 23.8211 28.4812 23.6596 28.0664C23.4982 27.6516 23.4439 27.2029 23.5016 26.7616C23.5594 26.3202 23.7274 25.9006 23.9901 25.5413C24.2528 25.1821 24.6018 24.8948 25.0048 24.7059C25.0403 24.6893 25.0795 24.6824 25.1186 24.686C25.1576 24.6895 25.1949 24.7034 25.2268 24.7261C25.2587 24.7489 25.284 24.7797 25.3 24.8155C25.316 24.8512 25.3223 24.8906 25.3181 24.9295C25.2751 25.3265 25.3306 25.7278 25.4796 26.0982C25.6286 26.4686 25.8665 26.7966 26.1723 27.0533C26.4781 27.3099 26.8425 27.4872 27.2331 27.5696C27.6237 27.652 28.0287 27.637 28.4121 27.5257C28.4498 27.5149 28.4897 27.5143 28.5277 27.524C28.5657 27.5336 28.6004 27.5533 28.6283 27.5808ZM28.131 28.0366C28.082 28.0434 28.0326 28.0491 27.9834 28.0534C27.225 28.1189 26.4716 27.8809 25.8886 27.3916C25.3055 26.9023 24.9404 26.2016 24.8734 25.4434C24.8691 25.3941 24.8648 25.3446 24.8643 25.2951C24.5864 25.4891 24.3569 25.7445 24.1935 26.0415C24.0301 26.3385 23.9373 26.6692 23.9223 27.0078C23.9073 27.3465 23.9704 27.684 24.1068 27.9943C24.2432 28.3046 24.4493 28.5794 24.7089 28.7973C24.9686 29.0151 25.2749 29.1703 25.6042 29.2508C25.9335 29.3312 26.2769 29.3348 26.6078 29.2612C26.9387 29.1876 27.2482 29.0388 27.5123 28.8263C27.7764 28.6139 27.9881 28.3435 28.1309 28.0361L28.131 28.0366Z" fill="#D0D0D0"/>
</g>
<rect x="11.9859" y="33.4108" width="188.264" height="68.1383" rx="2.776" transform="rotate(-5 11.9859 33.4108)" fill="white"/>
<rect x="11.9859" y="33.4108" width="188.264" height="68.1383" rx="2.776" transform="rotate(-5 11.9859 33.4108)" stroke="#E1E1E1" stroke-width="0.504728"/>
<rect x="18.3621" y="39.6931" width="161.008" height="7.57092" rx="3.78546" transform="rotate(-5 18.3621 39.6931)" fill="#EAEAEA"/>
<rect x="19.4178" y="51.7605" width="170.598" height="7.57092" rx="3.78546" transform="rotate(-5 19.4178 51.7605)" fill="#EAEAEA"/>
<rect x="20.4736" y="63.8279" width="168.579" height="7.57092" rx="3.78546" transform="rotate(-5 20.4736 63.8279)" fill="#EAEAEA"/>
<rect x="21.5294" y="75.8953" width="168.579" height="7.57092" rx="3.78546" transform="rotate(-5 21.5294 75.8953)" fill="#EAEAEA"/>
<rect x="22.5851" y="87.9626" width="90.3463" height="7.57092" rx="3.78546" transform="rotate(-5 22.5851 87.9626)" fill="#EAEAEA"/>
<rect x="18.1445" y="103.804" width="188.264" height="19.6844" rx="2.776" transform="rotate(-5 18.1445 103.804)" fill="white"/>
<rect x="18.1445" y="103.804" width="188.264" height="19.6844" rx="2.776" transform="rotate(-5 18.1445 103.804)" stroke="#E1E1E1" stroke-width="0.504728"/>
<rect x="24.7988" y="108.922" width="8.32801" height="8.32801" rx="2.64982" transform="rotate(-5 24.7988 108.922)" fill="white"/>
<rect x="24.7988" y="108.922" width="8.32801" height="8.32801" rx="2.64982" transform="rotate(-5 24.7988 108.922)" stroke="#C0C0C0" stroke-width="0.757092"/>
<rect x="37.5936" y="108.942" width="159.494" height="7.57092" rx="3.78546" transform="rotate(-5 37.5936 108.942)" fill="#EAEAEA"/>
</g>
</g>
<g filter="url(#filter2_d_249_628)">
<rect x="18.0623" y="7.08252" width="192.806" height="102.46" rx="4.03782" transform="rotate(5 18.0623 7.08252)" fill="#EEEEEE" shape-rendering="crispEdges"/>
<rect x="18.2917" y="7.35592" width="192.301" height="101.955" rx="3.78546" transform="rotate(5 18.2917 7.35592)" stroke="#E4E4E4" stroke-width="0.504728" shape-rendering="crispEdges"/>
<rect x="19.8976" y="9.26978" width="8.07565" height="5.55201" rx="2.776" transform="rotate(5 19.8976 9.26978)" fill="#D0D0D0"/>
<g clip-path="url(#clip2_249_628)">
<path d="M27.5888 11.8425C27.5837 11.9009 27.5557 11.9548 27.5108 11.9925C27.4659 12.0301 27.408 12.0484 27.3496 12.0433L26.9097 12.0048L26.8712 12.4447C26.8661 12.5031 26.838 12.557 26.7931 12.5946C26.7483 12.6323 26.6903 12.6506 26.632 12.6455C26.5736 12.6404 26.5197 12.6123 26.482 12.5674C26.4444 12.5226 26.4261 12.4646 26.4312 12.4062L26.4697 11.9663L26.0298 11.9278C25.9714 11.9227 25.9175 11.8946 25.8799 11.8498C25.8422 11.8049 25.8239 11.7469 25.829 11.6886C25.8341 11.6302 25.8622 11.5763 25.9071 11.5387C25.9519 11.501 26.0099 11.4827 26.0683 11.4879L26.5082 11.5263L26.5467 11.0864C26.5518 11.028 26.5799 10.9741 26.6247 10.9365C26.6696 10.8988 26.7276 10.8806 26.7859 10.8857C26.8443 10.8908 26.8982 10.9188 26.9358 10.9637C26.9735 11.0086 26.9917 11.0665 26.9866 11.1249L26.9482 11.5648L27.3881 11.6033C27.4464 11.6084 27.5004 11.6365 27.538 11.6814C27.5757 11.7262 27.5939 11.7842 27.5888 11.8425ZM25.0454 10.5117L25.2653 10.531L25.2461 10.7509C25.241 10.8093 25.2593 10.8673 25.2969 10.9121C25.3346 10.957 25.3885 10.9851 25.4468 10.9902C25.5052 10.9953 25.5631 10.977 25.608 10.9393C25.6529 10.9017 25.6809 10.8478 25.686 10.7894L25.7053 10.5695L25.9253 10.5887C25.9836 10.5938 26.0416 10.5755 26.0864 10.5379C26.1313 10.5002 26.1594 10.4463 26.1645 10.388C26.1696 10.3296 26.1513 10.2717 26.1137 10.2268C26.076 10.1819 26.0221 10.1539 25.9637 10.1488L25.7438 10.1295L25.763 9.90953C25.7681 9.85119 25.7498 9.79321 25.7122 9.74835C25.6746 9.70349 25.6206 9.67541 25.5623 9.67031C25.5039 9.66521 25.446 9.68349 25.4011 9.72113C25.3562 9.75878 25.3282 9.8127 25.3231 9.87104L25.3038 10.091L25.0838 10.0718C25.0255 10.0667 24.9675 10.0849 24.9227 10.1226C24.8778 10.1602 24.8497 10.2142 24.8446 10.2725C24.8395 10.3308 24.8578 10.3888 24.8954 10.4337C24.9331 10.4785 24.987 10.5066 25.0454 10.5117ZM26.813 13.354C26.836 13.386 26.8499 13.4237 26.8535 13.463C26.857 13.5022 26.8499 13.5418 26.833 13.5774C26.644 13.9803 26.3565 14.3291 25.9971 14.5916C25.6376 14.8541 25.2179 15.0219 24.7765 15.0794C24.3352 15.1369 23.8865 15.0823 23.4718 14.9207C23.0571 14.759 22.6898 14.4955 22.4039 14.1545C22.1179 13.8135 21.9224 13.4059 21.8354 12.9694C21.7485 12.5329 21.7729 12.0815 21.9064 11.657C22.0399 11.2324 22.2782 10.8483 22.5993 10.5401C22.9205 10.2319 23.314 10.0095 23.7437 9.89357C23.7815 9.88335 23.8214 9.88338 23.8592 9.89366C23.897 9.90393 23.9314 9.92408 23.9588 9.95203C23.9863 9.97998 24.0058 10.0147 24.0154 10.0527C24.025 10.0907 24.0243 10.1306 24.0134 10.1682C23.9022 10.5516 23.8871 10.9565 23.9695 11.3472C24.0519 11.7378 24.2292 12.1021 24.4859 12.408C24.7425 12.7138 25.0705 12.9517 25.4409 13.1007C25.8113 13.2497 26.2127 13.3052 26.6096 13.2622C26.6486 13.2581 26.688 13.2644 26.7237 13.2805C26.7595 13.2967 26.7903 13.322 26.813 13.354ZM26.244 13.7165C26.1946 13.7147 26.1449 13.7117 26.0957 13.7074C25.3375 13.6403 24.6369 13.275 24.1477 12.6919C23.6585 12.1087 23.4206 11.3553 23.4863 10.597C23.4906 10.5478 23.4949 10.4983 23.5031 10.4494C23.1957 10.5922 22.9252 10.8039 22.7128 11.068C22.5003 11.3321 22.3515 11.6416 22.2779 11.9725C22.2043 12.3034 22.2079 12.6468 22.2884 12.9761C22.3688 13.3054 22.524 13.6117 22.7419 13.8714C22.9598 14.131 23.2345 14.3371 23.5448 14.4735C23.8551 14.6099 24.1927 14.673 24.5313 14.658C24.87 14.6429 25.2006 14.5502 25.4976 14.3868C25.7946 14.2234 26.05 13.9939 26.244 13.7159L26.244 13.7165Z" fill="#D0D0D0"/>
</g>
<rect x="29.9537" y="10.1494" width="22.7128" height="5.55201" rx="2.776" transform="rotate(5 29.9537 10.1494)" fill="#D0D0D0"/>
<g clip-path="url(#clip3_249_628)">
<path d="M37.645 12.7222C37.6399 12.7805 37.6118 12.8344 37.5669 12.8721C37.5221 12.9097 37.4641 12.928 37.4058 12.9229L36.9658 12.8844L36.9273 13.3244C36.9222 13.3827 36.8941 13.4366 36.8493 13.4743C36.8044 13.5119 36.7464 13.5302 36.6881 13.5251C36.6298 13.52 36.5758 13.4919 36.5382 13.4471C36.5005 13.4022 36.4823 13.3442 36.4874 13.2859L36.5259 12.8459L36.0859 12.8074C36.0276 12.8023 35.9736 12.7743 35.936 12.7294C35.8984 12.6845 35.8801 12.6266 35.8852 12.5682C35.8903 12.5099 35.9184 12.456 35.9632 12.4183C36.0081 12.3807 36.0661 12.3624 36.1244 12.3675L36.5644 12.406L36.6028 11.966C36.6079 11.9077 36.636 11.8538 36.6809 11.8161C36.7257 11.7785 36.7837 11.7602 36.8421 11.7653C36.9004 11.7704 36.9543 11.7985 36.992 11.8433C37.0296 11.8882 37.0479 11.9462 37.0428 12.0045L37.0043 12.4445L37.4443 12.483C37.5026 12.4881 37.5565 12.5161 37.5942 12.561C37.6318 12.6059 37.6501 12.6638 37.645 12.7222ZM35.1015 11.3914L35.3215 11.4106L35.3022 11.6306C35.2971 11.6889 35.3154 11.7469 35.3531 11.7918C35.3907 11.8366 35.4446 11.8647 35.503 11.8698C35.5613 11.8749 35.6193 11.8566 35.6642 11.819C35.709 11.7813 35.7371 11.7274 35.7422 11.6691L35.7614 11.4491L35.9814 11.4683C36.0398 11.4734 36.0977 11.4552 36.1426 11.4175C36.1875 11.3799 36.2155 11.326 36.2206 11.2676C36.2257 11.2093 36.2075 11.1513 36.1698 11.1064C36.1322 11.0616 36.0782 11.0335 36.0199 11.0284L35.7999 11.0091L35.8192 10.7892C35.8243 10.7308 35.806 10.6728 35.7683 10.628C35.7307 10.5831 35.6768 10.5551 35.6184 10.5499C35.5601 10.5448 35.5021 10.5631 35.4573 10.6008C35.4124 10.6384 35.3843 10.6923 35.3792 10.7507L35.36 10.9707L35.14 10.9514C35.0817 10.9463 35.0237 10.9646 34.9788 11.0022C34.934 11.0399 34.9059 11.0938 34.9008 11.1521C34.8957 11.2105 34.914 11.2685 34.9516 11.3133C34.9892 11.3582 35.0432 11.3863 35.1015 11.3914ZM36.8691 14.2336C36.8921 14.2657 36.9061 14.3033 36.9096 14.3426C36.9132 14.3819 36.9061 14.4214 36.8892 14.457C36.7001 14.86 36.4126 15.2088 36.0532 15.4713C35.6938 15.7338 35.274 15.9015 34.8327 15.959C34.3914 16.0165 33.9426 15.9619 33.528 15.8003C33.1133 15.6387 32.746 15.3752 32.46 15.0341C32.174 14.6931 31.9785 14.2855 31.8916 13.849C31.8047 13.4125 31.8291 12.9612 31.9626 12.5366C32.0961 12.112 32.3344 11.7279 32.6555 11.4197C32.9766 11.1115 33.3702 10.8892 33.7999 10.7732C33.8377 10.763 33.8775 10.763 33.9154 10.7733C33.9532 10.7836 33.9875 10.8037 34.015 10.8317C34.0424 10.8596 34.062 10.8944 34.0715 10.9324C34.0811 10.9703 34.0804 11.0102 34.0695 11.0478C33.9583 11.4313 33.9432 11.8362 34.0256 12.2268C34.1081 12.6175 34.2854 12.9818 34.542 13.2876C34.7986 13.5934 35.1266 13.8314 35.497 13.9803C35.8674 14.1293 36.2688 14.1848 36.6657 14.1419C36.7047 14.1377 36.7441 14.144 36.7799 14.1602C36.8156 14.1763 36.8464 14.2016 36.8691 14.2336ZM36.3001 14.5961C36.2507 14.5943 36.2011 14.5913 36.1519 14.587C35.3937 14.5199 34.6931 14.1547 34.2038 13.5715C33.7146 12.9884 33.4767 12.235 33.5424 11.4766C33.5467 11.4274 33.5511 11.3779 33.5592 11.329C33.2518 11.4718 32.9814 11.6835 32.7689 11.9476C32.5565 12.2118 32.4077 12.5213 32.3341 12.8522C32.2605 13.183 32.2641 13.5264 32.3445 13.8557C32.425 14.185 32.5801 14.4913 32.798 14.751C33.0159 15.0107 33.2906 15.2167 33.601 15.3531C33.9113 15.4895 34.2488 15.5526 34.5875 15.5376C34.9261 15.5226 35.2567 15.4298 35.5537 15.2664C35.8508 15.1031 36.1062 14.8735 36.3002 14.5956L36.3001 14.5961Z" fill="#D0D0D0"/>
</g>
<rect x="19.4672" y="17.0852" width="188.264" height="68.1383" rx="2.776" transform="rotate(5 19.4672 17.0852)" fill="white"/>
<rect x="19.4672" y="17.0852" width="188.264" height="68.1383" rx="2.776" transform="rotate(5 19.4672 17.0852)" stroke="#E1E1E1" stroke-width="0.504728"/>
<rect x="24.6556" y="24.3792" width="161.008" height="7.57092" rx="3.78546" transform="rotate(5 24.6556 24.3792)" fill="#EAEAEA"/>
<rect x="23.5999" y="36.4465" width="170.598" height="7.57092" rx="3.78546" transform="rotate(5 23.5999 36.4465)" fill="#EAEAEA"/>
<rect x="22.5441" y="48.5139" width="168.579" height="7.57092" rx="3.78546" transform="rotate(5 22.5441 48.5139)" fill="#EAEAEA"/>
<rect x="21.4884" y="60.5813" width="168.579" height="7.57092" rx="3.78546" transform="rotate(5 21.4884 60.5813)" fill="#EAEAEA"/>
<rect x="20.4326" y="72.6487" width="90.3463" height="7.57092" rx="3.78546" transform="rotate(5 20.4326 72.6487)" fill="#EAEAEA"/>
<rect x="13.3085" y="87.4782" width="188.264" height="19.6844" rx="2.776" transform="rotate(5 13.3085 87.4782)" fill="white"/>
<rect x="13.3085" y="87.4782" width="188.264" height="19.6844" rx="2.776" transform="rotate(5 13.3085 87.4782)" stroke="#E1E1E1" stroke-width="0.504728"/>
<rect x="18.973" y="93.6738" width="8.32801" height="8.32801" rx="2.64982" transform="rotate(5 18.973 93.6738)" fill="white"/>
<rect x="18.973" y="93.6738" width="8.32801" height="8.32801" rx="2.64982" transform="rotate(5 18.973 93.6738)" stroke="#C0C0C0" stroke-width="0.757092"/>
<rect x="31.5699" y="95.916" width="159.494" height="7.57092" rx="3.78546" transform="rotate(5 31.5699 95.916)" fill="#EAEAEA"/>
</g>
<defs>
<filter id="filter0_f_249_628" x="7.86536" y="6" width="203.002" height="120.874" filterUnits="userSpaceOnUse" color-interpolation-filters="sRGB">
<feFlood flood-opacity="0" result="BackgroundImageFix"/>
<feBlend mode="normal" in="SourceGraphic" in2="BackgroundImageFix" result="shape"/>
<feGaussianBlur stdDeviation="0.5" result="effect1_foregroundBlur_249_628"/>
</filter>
<filter id="filter1_d_249_628" x="-0.0178576" y="0.135698" width="218.769" height="136.64" filterUnits="userSpaceOnUse" color-interpolation-filters="sRGB">
<feFlood flood-opacity="0" result="BackgroundImageFix"/>
<feColorMatrix in="SourceAlpha" type="matrix" values="0 0 0 0 0 0 0 0 0 0 0 0 0 0 0 0 0 0 127 0" result="hardAlpha"/>
<feOffset dy="2.01891"/>
<feGaussianBlur stdDeviation="4.44161"/>
<feComposite in2="hardAlpha" operator="out"/>
<feColorMatrix type="matrix" values="0 0 0 0 0 0 0 0 0 0 0 0 0 0 0 0 0 0 0.1 0"/>
<feBlend mode="normal" in2="BackgroundImageFix" result="effect1_dropShadow_249_628"/>
<feBlend mode="normal" in="SourceGraphic" in2="effect1_dropShadow_249_628" result="shape"/>
</filter>
<filter id="filter2_d_249_628" x="0.24911" y="0.218218" width="218.769" height="136.64" filterUnits="userSpaceOnUse" color-interpolation-filters="sRGB">
<feFlood flood-opacity="0" result="BackgroundImageFix"/>
<feColorMatrix in="SourceAlpha" type="matrix" values="0 0 0 0 0 0 0 0 0 0 0 0 0 0 0 0 0 0 127 0" result="hardAlpha"/>
<feOffset dy="2.01891"/>
<feGaussianBlur stdDeviation="4.44161"/>
<feComposite in2="hardAlpha" operator="out"/>
<feColorMatrix type="matrix" values="0 0 0 0 0 0 0 0 0 0 0 0 0 0 0 0 0 0 0.1 0"/>
<feBlend mode="normal" in2="BackgroundImageFix" result="effect1_dropShadow_249_628"/>
<feBlend mode="normal" in="SourceGraphic" in2="effect1_dropShadow_249_628" result="shape"/>
</filter>
<clipPath id="clip0_249_628">
<rect width="7.06619" height="7.06619" fill="white" transform="translate(12.2437 24.7751) rotate(-5)"/>
</clipPath>
<clipPath id="clip1_249_628">
<rect width="7.06619" height="7.06619" fill="white" transform="translate(22.2998 23.8953) rotate(-5)"/>
</clipPath>
<clipPath id="clip2_249_628">
<rect width="7.06619" height="7.06619" fill="white" transform="translate(21.2205 8.62549) rotate(5)"/>
</clipPath>
<clipPath id="clip3_249_628">
<rect width="7.06619" height="7.06619" fill="white" transform="translate(31.2766 9.50513) rotate(5)"/>
</clipPath>
</defs>
</svg>
