<svg width="430" height="474" viewBox="0 0 430 474" fill="none" xmlns="http://www.w3.org/2000/svg">
<g filter="url(#filter0_dii_425_1418)">
<path d="M450.29 91.7383C444.929 217.051 341.641 316.999 215.009 316.999C88.5495 316.999 -14.6291 217.323 -20.249 92.251H135.891C218.505 92.251 259.666 139.17 274.836 203.803C275.397 206.195 279.221 206.195 279.782 203.803C294.951 139.116 336.112 91.7383 418.728 91.7383H450.29ZM215.009 -154C341.621 -154 444.896 -54.0836 450.287 71.2012H418.728C336.121 71.2011 294.96 25.4942 279.787 -39.2334C279.226 -41.6276 275.394 -41.6278 274.833 -39.2334C259.661 25.5489 218.499 71.7139 135.891 71.7139H-20.29C-15.1594 -53.8107 88.2242 -154 215.009 -154Z" fill="url(#paint0_linear_425_1418)"/>
</g>
<path d="M125.067 407.999L118.335 382.439H121.719L126.975 403.751L132.195 382.439H135.723L140.979 403.751L146.199 382.439H149.619L142.887 407.999H138.999L133.959 388.199L128.919 407.999H125.067ZM159.889 408.431C158.089 408.431 156.529 408.023 155.209 407.207C153.913 406.391 152.905 405.239 152.185 403.751C151.489 402.239 151.141 400.475 151.141 398.459C151.141 396.443 151.489 394.691 152.185 393.203C152.905 391.715 153.901 390.563 155.173 389.747C156.469 388.907 157.993 388.487 159.745 388.487C161.401 388.487 162.865 388.883 164.137 389.675C165.409 390.443 166.393 391.571 167.089 393.059C167.809 394.547 168.169 396.359 168.169 398.495V399.395H154.309C154.429 401.435 154.969 402.971 155.929 404.003C156.913 405.035 158.233 405.551 159.889 405.551C161.137 405.551 162.157 405.263 162.949 404.687C163.765 404.087 164.329 403.307 164.641 402.347L167.881 402.599C167.377 404.303 166.417 405.707 165.001 406.811C163.609 407.891 161.905 408.431 159.889 408.431ZM154.309 396.731H164.857C164.713 394.883 164.173 393.527 163.237 392.663C162.325 391.799 161.161 391.367 159.745 391.367C158.281 391.367 157.069 391.823 156.109 392.735C155.173 393.623 154.573 394.955 154.309 396.731ZM176.185 407.999C175.081 407.999 174.181 407.711 173.485 407.135C172.789 406.559 172.441 405.647 172.441 404.399V382.439H175.465V404.147C175.465 404.531 175.561 404.831 175.753 405.047C175.969 405.239 176.269 405.335 176.653 405.335H178.309V407.999H176.185ZM189.279 408.431C187.503 408.431 185.955 408.023 184.635 407.207C183.339 406.391 182.331 405.239 181.611 403.751C180.891 402.239 180.531 400.475 180.531 398.459C180.531 396.443 180.891 394.691 181.611 393.203C182.331 391.715 183.339 390.563 184.635 389.747C185.955 388.907 187.503 388.487 189.279 388.487C190.743 388.487 192.039 388.751 193.167 389.279C194.319 389.783 195.255 390.527 195.975 391.511C196.695 392.495 197.163 393.695 197.379 395.111L194.211 395.327C193.995 394.055 193.443 393.083 192.555 392.411C191.667 391.715 190.575 391.367 189.279 391.367C187.527 391.367 186.159 392.003 185.175 393.275C184.191 394.523 183.699 396.251 183.699 398.459C183.699 400.667 184.191 402.407 185.175 403.679C186.159 404.927 187.527 405.551 189.279 405.551C190.575 405.551 191.667 405.191 192.555 404.471C193.443 403.751 193.995 402.671 194.211 401.231L197.379 401.447C197.163 402.863 196.695 404.099 195.975 405.155C195.255 406.187 194.319 406.991 193.167 407.567C192.039 408.143 190.743 408.431 189.279 408.431ZM208.58 408.431C206.828 408.431 205.292 408.023 203.972 407.207C202.652 406.391 201.632 405.239 200.912 403.751C200.192 402.239 199.832 400.475 199.832 398.459C199.832 396.419 200.192 394.655 200.912 393.167C201.632 391.679 202.652 390.527 203.972 389.711C205.292 388.895 206.828 388.487 208.58 388.487C210.332 388.487 211.856 388.895 213.152 389.711C214.472 390.527 215.492 391.679 216.212 393.167C216.932 394.655 217.292 396.419 217.292 398.459C217.292 400.475 216.932 402.239 216.212 403.751C215.492 405.239 214.472 406.391 213.152 407.207C211.856 408.023 210.332 408.431 208.58 408.431ZM208.58 405.551C210.332 405.551 211.688 404.927 212.648 403.679C213.632 402.407 214.124 400.667 214.124 398.459C214.124 396.251 213.632 394.523 212.648 393.275C211.688 392.003 210.332 391.367 208.58 391.367C206.828 391.367 205.46 392.003 204.476 393.275C203.492 394.523 203 396.251 203 398.459C203 400.667 203.492 402.407 204.476 403.679C205.46 404.927 206.828 405.551 208.58 405.551ZM221.413 407.999V388.919H224.185L224.293 393.743L223.861 393.599C224.077 392.543 224.449 391.643 224.977 390.899C225.529 390.131 226.201 389.543 226.993 389.135C227.785 388.703 228.661 388.487 229.621 388.487C231.277 388.487 232.621 388.943 233.653 389.855C234.709 390.767 235.369 392.039 235.633 393.671L235.057 393.635C235.249 392.531 235.597 391.607 236.101 390.863C236.629 390.095 237.301 389.507 238.117 389.099C238.933 388.691 239.869 388.487 240.925 388.487C242.293 388.487 243.445 388.775 244.381 389.351C245.317 389.903 246.025 390.719 246.505 391.799C246.985 392.879 247.225 394.187 247.225 395.723V407.999H244.201V396.371C244.201 394.643 243.865 393.347 243.193 392.483C242.521 391.595 241.525 391.151 240.205 391.151C239.317 391.151 238.537 391.367 237.865 391.799C237.217 392.231 236.713 392.855 236.353 393.671C235.993 394.463 235.813 395.435 235.813 396.587V407.999H232.789V396.587C232.789 394.883 232.489 393.551 231.889 392.591C231.289 391.631 230.281 391.151 228.865 391.151C227.977 391.151 227.197 391.367 226.525 391.799C225.877 392.231 225.361 392.855 224.977 393.671C224.617 394.487 224.437 395.459 224.437 396.587V407.999H221.413ZM260.014 408.431C258.214 408.431 256.654 408.023 255.334 407.207C254.038 406.391 253.03 405.239 252.31 403.751C251.614 402.239 251.266 400.475 251.266 398.459C251.266 396.443 251.614 394.691 252.31 393.203C253.03 391.715 254.026 390.563 255.298 389.747C256.594 388.907 258.118 388.487 259.87 388.487C261.526 388.487 262.99 388.883 264.262 389.675C265.534 390.443 266.518 391.571 267.214 393.059C267.934 394.547 268.294 396.359 268.294 398.495V399.395H254.434C254.554 401.435 255.094 402.971 256.054 404.003C257.038 405.035 258.358 405.551 260.014 405.551C261.262 405.551 262.282 405.263 263.074 404.687C263.89 404.087 264.454 403.307 264.766 402.347L268.006 402.599C267.502 404.303 266.542 405.707 265.126 406.811C263.734 407.891 262.03 408.431 260.014 408.431ZM254.434 396.731H264.982C264.838 394.883 264.298 393.527 263.362 392.663C262.45 391.799 261.286 391.367 259.87 391.367C258.406 391.367 257.194 391.823 256.234 392.735C255.298 393.623 254.698 394.955 254.434 396.731ZM288.725 407.999C286.997 407.999 285.713 407.603 284.873 406.811C284.057 406.019 283.649 404.783 283.649 403.103V384.455H286.673V403.031C286.673 403.895 286.865 404.495 287.249 404.831C287.633 405.167 288.221 405.335 289.013 405.335H291.749V407.999H288.725ZM280.841 391.583V388.919H291.749V391.583H280.841ZM302.728 408.431C300.976 408.431 299.44 408.023 298.12 407.207C296.8 406.391 295.78 405.239 295.06 403.751C294.34 402.239 293.98 400.475 293.98 398.459C293.98 396.419 294.34 394.655 295.06 393.167C295.78 391.679 296.8 390.527 298.12 389.711C299.44 388.895 300.976 388.487 302.728 388.487C304.48 388.487 306.004 388.895 307.3 389.711C308.62 390.527 309.64 391.679 310.36 393.167C311.08 394.655 311.44 396.419 311.44 398.459C311.44 400.475 311.08 402.239 310.36 403.751C309.64 405.239 308.62 406.391 307.3 407.207C306.004 408.023 304.48 408.431 302.728 408.431ZM302.728 405.551C304.48 405.551 305.836 404.927 306.796 403.679C307.78 402.407 308.272 400.667 308.272 398.459C308.272 396.251 307.78 394.523 306.796 393.275C305.836 392.003 304.48 391.367 302.728 391.367C300.976 391.367 299.608 392.003 298.624 393.275C297.64 394.523 297.148 396.251 297.148 398.459C297.148 400.667 297.64 402.407 298.624 403.679C299.608 404.927 300.976 405.551 302.728 405.551Z" fill="#CCD9FF"/>
<path d="M104.435 463.999V426.819H112.394L128.418 454.783V426.819H135.226V463.999H127.057L111.242 436.821V463.999H104.435ZM154.72 464.627C151.963 464.627 149.536 464.034 147.442 462.847C145.382 461.625 143.776 459.914 142.624 457.715C141.507 455.516 140.948 452.95 140.948 450.017C140.948 447.05 141.507 444.484 142.624 442.32C143.776 440.12 145.382 438.427 147.442 437.24C149.536 436.018 151.963 435.407 154.72 435.407C157.478 435.407 159.887 436.018 161.947 437.24C164.007 438.427 165.595 440.12 166.712 442.32C167.864 444.484 168.44 447.05 168.44 450.017C168.44 452.95 167.864 455.516 166.712 457.715C165.595 459.914 164.007 461.625 161.947 462.847C159.887 464.034 157.478 464.627 154.72 464.627ZM154.72 459.181C156.885 459.181 158.543 458.378 159.695 456.773C160.882 455.167 161.476 452.915 161.476 450.017C161.476 447.155 160.882 444.92 159.695 443.315C158.543 441.674 156.885 440.853 154.72 440.853C152.556 440.853 150.88 441.674 149.693 443.315C148.506 444.92 147.913 447.155 147.913 450.017C147.913 452.915 148.506 455.167 149.693 456.773C150.88 458.378 152.556 459.181 154.72 459.181ZM183.847 463.999C181.054 463.999 178.995 463.353 177.668 462.061C176.376 460.77 175.731 458.745 175.731 455.987V429.49H182.433V455.359C182.433 456.65 182.713 457.558 183.271 458.082C183.83 458.57 184.703 458.815 185.89 458.815H189.817V463.999H183.847ZM171.332 441.22V436.036H189.817V441.22H171.332ZM206.369 464.627C203.576 464.627 201.15 464.034 199.09 462.847C197.03 461.625 195.442 459.914 194.325 457.715C193.208 455.516 192.649 452.95 192.649 450.017C192.649 447.085 193.208 444.536 194.325 442.372C195.442 440.173 197.013 438.462 199.038 437.24C201.098 436.018 203.489 435.407 206.212 435.407C208.865 435.407 211.187 436.001 213.177 437.188C215.201 438.375 216.755 440.085 217.837 442.32C218.919 444.554 219.461 447.242 219.461 450.384V451.903H199.614C199.754 454.346 200.417 456.197 201.604 457.453C202.826 458.675 204.432 459.286 206.421 459.286C207.923 459.286 209.162 458.954 210.139 458.291C211.152 457.593 211.85 456.633 212.234 455.411L219.094 455.83C218.326 458.553 216.807 460.7 214.538 462.271C212.304 463.842 209.581 464.627 206.369 464.627ZM199.614 447.399H212.548C212.409 445.13 211.763 443.454 210.611 442.372C209.459 441.255 207.992 440.696 206.212 440.696C204.432 440.696 202.948 441.272 201.761 442.424C200.609 443.576 199.893 445.235 199.614 447.399ZM233.226 464.627C230.293 464.627 227.937 463.964 226.156 462.638C224.376 461.276 223.486 459.391 223.486 456.982C223.486 454.573 224.236 452.688 225.737 451.327C227.239 449.965 229.525 448.988 232.597 448.394L241.866 446.561C241.866 444.571 241.412 443.088 240.505 442.11C239.597 441.098 238.253 440.592 236.472 440.592C234.867 440.592 233.592 440.976 232.65 441.744C231.742 442.477 231.114 443.541 230.765 444.938L223.957 444.624C224.516 441.656 225.877 439.387 228.042 437.816C230.206 436.21 233.016 435.407 236.472 435.407C240.452 435.407 243.455 436.42 245.479 438.445C247.539 440.434 248.569 443.297 248.569 447.033V457.191C248.569 457.925 248.691 458.431 248.935 458.71C249.215 458.989 249.616 459.129 250.14 459.129H251.03V463.999C250.821 464.069 250.472 464.121 249.983 464.156C249.529 464.191 249.058 464.208 248.569 464.208C247.417 464.208 246.387 464.034 245.479 463.685C244.572 463.301 243.873 462.655 243.385 461.747C242.896 460.805 242.652 459.53 242.652 457.925L243.228 458.344C242.948 459.565 242.337 460.665 241.395 461.643C240.487 462.585 239.335 463.318 237.939 463.842C236.542 464.366 234.971 464.627 233.226 464.627ZM234.587 459.757C236.088 459.757 237.38 459.461 238.462 458.867C239.545 458.274 240.382 457.453 240.976 456.406C241.569 455.359 241.866 454.119 241.866 452.688V451.117L234.64 452.583C233.138 452.897 232.056 453.369 231.393 453.997C230.765 454.591 230.45 455.376 230.45 456.354C230.45 457.436 230.799 458.274 231.498 458.867C232.231 459.461 233.261 459.757 234.587 459.757ZM270.105 464.627C268.15 464.627 266.44 464.208 264.973 463.371C263.542 462.533 262.425 461.363 261.622 459.862L261.465 463.999H255.076V426.819H261.779V440.015C262.547 438.724 263.647 437.642 265.078 436.769C266.509 435.861 268.185 435.407 270.105 435.407C272.514 435.407 274.591 436.018 276.337 437.24C278.117 438.427 279.479 440.12 280.421 442.32C281.399 444.484 281.887 447.05 281.887 450.017C281.887 452.985 281.399 455.568 280.421 457.767C279.479 459.932 278.117 461.625 276.337 462.847C274.591 464.034 272.514 464.627 270.105 464.627ZM268.587 459.181C270.507 459.181 272.043 458.378 273.195 456.773C274.347 455.132 274.923 452.88 274.923 450.017C274.923 447.12 274.347 444.868 273.195 443.262C272.078 441.656 270.559 440.853 268.639 440.853C267.208 440.853 265.968 441.22 264.921 441.953C263.909 442.651 263.123 443.681 262.564 445.043C262.041 446.404 261.779 448.062 261.779 450.017C261.779 451.903 262.041 453.543 262.564 454.94C263.123 456.301 263.909 457.349 264.921 458.082C265.933 458.815 267.155 459.181 268.587 459.181ZM294.047 463.999C292.023 463.999 290.399 463.475 289.177 462.428C287.955 461.381 287.345 459.705 287.345 457.401V426.819H294.047V456.72C294.047 457.418 294.222 457.942 294.571 458.291C294.955 458.64 295.479 458.815 296.142 458.815H298.184V463.999H294.047ZM314.578 464.627C311.785 464.627 309.359 464.034 307.299 462.847C305.239 461.625 303.651 459.914 302.534 457.715C301.417 455.516 300.858 452.95 300.858 450.017C300.858 447.085 301.417 444.536 302.534 442.372C303.651 440.173 305.222 438.462 307.247 437.24C309.307 436.018 311.698 435.407 314.421 435.407C317.074 435.407 319.396 436.001 321.386 437.188C323.41 438.375 324.964 440.085 326.046 442.32C327.128 444.554 327.669 447.242 327.669 450.384V451.903H307.823C307.962 454.346 308.626 456.197 309.813 457.453C311.035 458.675 312.64 459.286 314.63 459.286C316.132 459.286 317.371 458.954 318.348 458.291C319.361 457.593 320.059 456.633 320.443 455.411L327.303 455.83C326.535 458.553 325.016 460.7 322.747 462.271C320.513 463.842 317.79 464.627 314.578 464.627ZM307.823 447.399H320.757C320.618 445.13 319.972 443.454 318.82 442.372C317.668 441.255 316.201 440.696 314.421 440.696C312.64 440.696 311.157 441.272 309.97 442.424C308.818 443.576 308.102 445.235 307.823 447.399Z" fill="white"/>
<defs>
<filter id="filter0_dii_425_1418" x="-47.6964" y="-171.452" width="525.393" height="528.648" filterUnits="userSpaceOnUse" color-interpolation-filters="sRGB">
<feFlood flood-opacity="0" result="BackgroundImageFix"/>
<feColorMatrix in="SourceAlpha" type="matrix" values="0 0 0 0 0 0 0 0 0 0 0 0 0 0 0 0 0 0 127 0" result="hardAlpha"/>
<feOffset dy="12.7907"/>
<feGaussianBlur stdDeviation="13.7032"/>
<feComposite in2="hardAlpha" operator="out"/>
<feColorMatrix type="matrix" values="0 0 0 0 0 0 0 0 0 0 0 0 0 0 0 0 0 0 0.25 0"/>
<feBlend mode="normal" in2="BackgroundImageFix" result="effect1_dropShadow_425_1418"/>
<feBlend mode="normal" in="SourceGraphic" in2="effect1_dropShadow_425_1418" result="shape"/>
<feColorMatrix in="SourceAlpha" type="matrix" values="0 0 0 0 0 0 0 0 0 0 0 0 0 0 0 0 0 0 127 0" result="hardAlpha"/>
<feOffset dy="-17.4522"/>
<feGaussianBlur stdDeviation="18.648"/>
<feComposite in2="hardAlpha" operator="arithmetic" k2="-1" k3="1"/>
<feColorMatrix type="matrix" values="0 0 0 0 0.137255 0 0 0 0 0.352941 0 0 0 0 0.996078 0 0 0 0.3 0"/>
<feBlend mode="normal" in2="shape" result="effect2_innerShadow_425_1418"/>
<feColorMatrix in="SourceAlpha" type="matrix" values="0 0 0 0 0 0 0 0 0 0 0 0 0 0 0 0 0 0 127 0" result="hardAlpha"/>
<feOffset dy="-5.17102"/>
<feGaussianBlur stdDeviation="1.93913"/>
<feComposite in2="hardAlpha" operator="arithmetic" k2="-1" k3="1"/>
<feColorMatrix type="matrix" values="0 0 0 0 1 0 0 0 0 1 0 0 0 0 1 0 0 0 0.25 0"/>
<feBlend mode="normal" in2="effect2_innerShadow_425_1418" result="effect3_innerShadow_425_1418"/>
</filter>
<linearGradient id="paint0_linear_425_1418" x1="-20.4899" y1="-154" x2="450.554" y2="317.248" gradientUnits="userSpaceOnUse">
<stop stop-color="#F2F5FF"/>
<stop offset="1" stop-color="#E6ECFF"/>
</linearGradient>
</defs>
</svg>
