<svg width="15" height="15" viewBox="0 0 15 15" fill="none" xmlns="http://www.w3.org/2000/svg">
<path d="M13.5667 9.33963H11.376C11.392 9.18704 11.4001 9.03364 11.4004 8.88011C11.4004 7.78326 10.9895 6.73133 10.2582 5.95574C9.52693 5.18015 8.53509 4.74443 7.50088 4.74443C6.46668 4.74443 5.47484 5.18015 4.74354 5.95574C4.01225 6.73133 3.60142 7.78326 3.60142 8.88011C3.60166 9.03364 3.6098 9.18704 3.62579 9.33963H1.43504C1.32013 9.33963 1.20993 9.38804 1.12867 9.47422C1.04742 9.56039 1.00177 9.67728 1.00177 9.79915C1.00177 9.92102 1.04742 10.0379 1.12867 10.1241C1.20993 10.2103 1.32013 10.2587 1.43504 10.2587H13.5667C13.6816 10.2587 13.7918 10.2103 13.8731 10.1241C13.9544 10.0379 14 9.92102 14 9.79915C14 9.67728 13.9544 9.56039 13.8731 9.47422C13.7918 9.38804 13.6816 9.33963 13.5667 9.33963ZM4.46796 8.88011C4.46717 8.43777 4.5524 8 4.71835 7.59418C4.88429 7.18836 5.12737 6.82319 5.43239 6.52151C5.73742 6.21983 6.09783 5.98811 6.49112 5.84084C6.8844 5.69357 7.3021 5.63391 7.7181 5.66559C8.13411 5.69727 8.53948 5.81962 8.90889 6.02497C9.2783 6.23032 9.60381 6.51428 9.86506 6.85909C10.1263 7.2039 10.3177 7.60215 10.4273 8.02895C10.5368 8.45576 10.5622 8.90195 10.5019 9.33963H4.49992C4.47895 9.18746 4.46827 9.03389 4.46796 8.88011ZM12.2669 12.0967C12.2669 12.2186 12.2213 12.3355 12.14 12.4217C12.0587 12.5079 11.9485 12.5563 11.8336 12.5563H3.16814C3.05323 12.5563 2.94303 12.5079 2.86177 12.4217C2.78052 12.3355 2.73487 12.2186 2.73487 12.0967C2.73487 11.9749 2.78052 11.858 2.86177 11.7718C2.94303 11.6856 3.05323 11.6372 3.16814 11.6372H11.8336C11.9485 11.6372 12.0587 11.6856 12.14 11.7718C12.2213 11.858 12.2669 11.9749 12.2669 12.0967ZM4.51346 3.11198C4.46204 3.00291 4.45357 2.87663 4.48994 2.76094C4.5263 2.64525 4.6045 2.54962 4.70735 2.49508C4.81019 2.44054 4.92926 2.43157 5.03834 2.47013C5.14742 2.50869 5.2376 2.59164 5.28902 2.70071L5.72229 3.61975C5.74776 3.67376 5.76294 3.73256 5.76697 3.79279C5.77101 3.85302 5.76382 3.91351 5.74582 3.97079C5.72781 4.02808 5.69935 4.08104 5.66204 4.12666C5.62474 4.17228 5.57933 4.20965 5.5284 4.23666C5.47748 4.26366 5.42204 4.27977 5.36525 4.28405C5.30846 4.28833 5.25143 4.2807 5.19741 4.26161C5.1434 4.24251 5.09346 4.21232 5.05045 4.17276C5.00744 4.13319 4.97219 4.08503 4.94673 4.03102L4.51346 3.11198ZM1.48054 5.91735C1.50602 5.86337 1.54128 5.81523 1.58431 5.77571C1.62734 5.73618 1.67729 5.70604 1.73131 5.68699C1.78533 5.66795 1.84236 5.66038 1.89913 5.66472C1.95591 5.66906 2.01132 5.68523 2.06221 5.71229L2.92876 6.17181C3.03153 6.22635 3.10967 6.32195 3.14598 6.43759C3.18229 6.55323 3.1738 6.67943 3.12238 6.78843C3.07095 6.89743 2.98081 6.9803 2.87178 7.01881C2.76274 7.05732 2.64375 7.04832 2.54098 6.99378L1.67443 6.53426C1.62348 6.50728 1.57804 6.46992 1.54072 6.42431C1.50339 6.3787 1.47491 6.32573 1.45691 6.26843C1.4389 6.21114 1.43172 6.15064 1.43577 6.0904C1.43983 6.03016 1.45504 5.97135 1.48054 5.91735ZM11.8791 6.78814C11.8278 6.67914 11.8194 6.55298 11.8557 6.4374C11.8921 6.32182 11.9703 6.22629 12.073 6.17181L12.9396 5.71229C12.9904 5.68529 13.0459 5.66918 13.1026 5.66488C13.1594 5.66059 13.2164 5.66819 13.2704 5.68726C13.3243 5.70633 13.3743 5.73649 13.4173 5.77602C13.4603 5.81555 13.4955 5.86367 13.521 5.91764C13.5464 5.97161 13.5616 6.03037 13.5657 6.09057C13.5697 6.15077 13.5625 6.21122 13.5446 6.26848C13.5266 6.32574 13.4981 6.37868 13.4609 6.42428C13.4236 6.46988 13.3782 6.50725 13.3273 6.53426L12.4608 6.99378C12.4099 7.02082 12.3544 7.03696 12.2976 7.04126C12.2408 7.04556 12.1838 7.03794 12.1298 7.01884C12.0757 6.99974 12.0258 6.96954 11.9828 6.92995C11.9398 6.89037 11.9046 6.84218 11.8791 6.78814ZM9.27948 3.61975L9.71275 2.70071C9.76417 2.59164 9.85434 2.50869 9.96343 2.47013C10.0725 2.43157 10.1916 2.44054 10.2944 2.49508C10.3973 2.54962 10.4755 2.64525 10.5118 2.76094C10.5482 2.87663 10.5397 3.00291 10.4883 3.11198L10.055 4.03102C10.0036 4.1401 9.91344 4.22304 9.80436 4.26161C9.69527 4.30017 9.57621 4.2912 9.47337 4.23666C9.37052 4.18212 9.29231 4.08649 9.25595 3.97079C9.21959 3.8551 9.22805 3.72883 9.27948 3.61975Z" fill="#666666"/>
</svg>
