<svg width="22" height="22" viewBox="0 0 22 22" fill="none" xmlns="http://www.w3.org/2000/svg">
<path d="M21.4247 5.46269L16.5378 0.574716C16.3753 0.412171 16.1823 0.283231 15.97 0.195261C15.7577 0.10729 15.5301 0.0620117 15.3002 0.0620117C15.0704 0.0620117 14.8428 0.10729 14.6304 0.195261C14.4181 0.283231 14.2251 0.412171 14.0626 0.574716L0.5756 14.0628C0.41239 14.2248 0.282992 14.4175 0.19493 14.6299C0.106867 14.8422 0.0618964 15.07 0.0626309 15.2999V20.1878C0.0626309 20.652 0.247005 21.0971 0.575194 21.4253C0.903383 21.7535 1.3485 21.9378 1.81263 21.9378H6.7006C6.9305 21.9386 7.15825 21.8936 7.37061 21.8055C7.58298 21.7175 7.77572 21.5881 7.93763 21.4249L21.4247 7.93784C21.5872 7.77533 21.7161 7.5824 21.8041 7.37005C21.8921 7.15771 21.9374 6.93011 21.9374 6.70026C21.9374 6.47042 21.8921 6.24282 21.8041 6.03047C21.7161 5.81813 21.5872 5.62519 21.4247 5.46269ZM6.7006 20.1878H1.81263V15.2999L11.4376 5.67487L16.3256 10.5628L6.7006 20.1878ZM17.5626 9.32472L12.6747 4.43784L15.2997 1.81284L20.1876 6.69972L17.5626 9.32472Z" fill="#474747"/>
</svg>
