<svg width="18" height="26" viewBox="0 0 18 26" fill="none" xmlns="http://www.w3.org/2000/svg">
<path d="M3.74898 12.5625V5.56109C3.74898 4.16843 4.30221 2.83281 5.28697 1.84805C6.27173 0.863291 7.60735 0.310059 9.00002 0.310059C10.3927 0.310059 11.7283 0.863291 12.7131 1.84805C13.6978 2.83281 14.251 4.16843 14.251 5.56109V12.5625C14.251 13.9551 13.6978 15.2908 12.7131 16.2755C11.7283 17.2603 10.3927 17.8135 9.00002 17.8135C7.60735 17.8135 6.27173 17.2603 5.28697 16.2755C4.30221 15.2908 3.74898 13.9551 3.74898 12.5625ZM17.7517 12.5625C17.7517 12.3304 17.6595 12.1078 17.4954 11.9436C17.3313 11.7795 17.1087 11.6873 16.8766 11.6873C16.6445 11.6873 16.4219 11.7795 16.2577 11.9436C16.0936 12.1078 16.0014 12.3304 16.0014 12.5625C16.0014 14.4194 15.2638 16.2002 13.9507 17.5132C12.6377 18.8262 10.8569 19.5639 9.00002 19.5639C7.14313 19.5639 5.36231 18.8262 4.04929 17.5132C2.73628 16.2002 1.99864 14.4194 1.99864 12.5625C1.99864 12.3304 1.90643 12.1078 1.7423 11.9436C1.57818 11.7795 1.35557 11.6873 1.12346 11.6873C0.891353 11.6873 0.66875 11.7795 0.504623 11.9436C0.340497 12.1078 0.248291 12.3304 0.248291 12.5625C0.250956 14.7313 1.05774 16.8221 2.51263 18.4306C3.96752 20.039 5.96715 21.0509 8.12484 21.2704V24.8149C8.12484 25.047 8.21705 25.2696 8.38118 25.4337C8.5453 25.5979 8.76791 25.6901 9.00002 25.6901C9.23213 25.6901 9.45473 25.5979 9.61886 25.4337C9.78298 25.2696 9.87519 25.047 9.87519 24.8149V21.2704C12.0329 21.0509 14.0325 20.039 15.4874 18.4306C16.9423 16.8221 17.7491 14.7313 17.7517 12.5625Z" fill="url(#paint0_linear_34_615)"/>
<defs>
<linearGradient id="paint0_linear_34_615" x1="-3" y1="-4.8685e-07" x2="20" y2="26" gradientUnits="userSpaceOnUse">
<stop stop-color="white"/>
<stop offset="1" stop-color="#FEC9B5"/>
</linearGradient>
</defs>
</svg>
