<svg width="26" height="27" viewBox="0 0 26 27" fill="none" xmlns="http://www.w3.org/2000/svg">
<path d="M21.125 4.5625H4.875C4.44402 4.5625 4.0307 4.7337 3.72595 5.03845C3.4212 5.3432 3.25 5.75652 3.25 6.1875V11.875C3.25 17.2294 5.84188 20.4743 8.01633 22.2537C10.3584 24.1691 12.6882 24.8191 12.7898 24.8466C12.9294 24.8846 13.0767 24.8846 13.2163 24.8466C13.3179 24.8191 15.6447 24.1691 17.9898 22.2537C20.1581 20.4743 22.75 17.2294 22.75 11.875V6.1875C22.75 5.75652 22.5788 5.3432 22.274 5.03845C21.9693 4.7337 21.556 4.5625 21.125 4.5625ZM21.125 11.875C21.125 15.6399 19.7377 18.6959 17.0016 20.9567C15.8105 21.9375 14.456 22.7008 13 23.2114C11.5631 22.7097 10.2253 21.96 9.04719 20.9963C6.27859 18.7315 4.875 15.6633 4.875 11.875V6.1875H21.125V11.875ZM8.36266 14.8873C8.2102 14.7349 8.12455 14.5281 8.12455 14.3125C8.12455 14.0969 8.2102 13.8901 8.36266 13.7377C8.51511 13.5852 8.72189 13.4995 8.9375 13.4995C9.15311 13.4995 9.35989 13.5852 9.51234 13.7377L11.375 15.6013L16.4877 10.4877C16.5631 10.4122 16.6528 10.3523 16.7514 10.3114C16.85 10.2706 16.9557 10.2495 17.0625 10.2495C17.1693 10.2495 17.275 10.2706 17.3736 10.3114C17.4722 10.3523 17.5619 10.4122 17.6373 10.4877C17.7128 10.5631 17.7727 10.6528 17.8136 10.7514C17.8544 10.85 17.8755 10.9557 17.8755 11.0625C17.8755 11.1693 17.8544 11.275 17.8136 11.3736C17.7727 11.4722 17.7128 11.5619 17.6373 11.6373L11.9498 17.3248C11.8744 17.4004 11.7848 17.4603 11.6861 17.5012C11.5875 17.5421 11.4818 17.5631 11.375 17.5631C11.2682 17.5631 11.1625 17.5421 11.0639 17.5012C10.9652 17.4603 10.8756 17.4004 10.8002 17.3248L8.36266 14.8873Z" fill="black"/>
</svg>
