<svg width="11" height="11" viewBox="0 0 11 11" fill="none" xmlns="http://www.w3.org/2000/svg">
<path d="M4.84326 10.3125C4.84326 10.4865 4.77412 10.6535 4.65105 10.7765C4.52798 10.8996 4.36106 10.9688 4.18701 10.9688H0.687012C0.512963 10.9688 0.346044 10.8996 0.222973 10.7765C0.0999021 10.6535 0.0307617 10.4865 0.0307617 10.3125V0.6875C0.0307617 0.513452 0.0999021 0.346532 0.222973 0.223461C0.346044 0.10039 0.512963 0.03125 0.687012 0.03125H4.18701C4.36106 0.03125 4.52798 0.10039 4.65105 0.223461C4.77412 0.346532 4.84326 0.513452 4.84326 0.6875C4.84326 0.861548 4.77412 1.02847 4.65105 1.15154C4.52798 1.27461 4.36106 1.34375 4.18701 1.34375H1.34326V9.65625H4.18701C4.36106 9.65625 4.52798 9.72539 4.65105 9.84846C4.77412 9.97153 4.84326 10.1385 4.84326 10.3125ZM10.7763 5.0357L8.58881 2.8482C8.46553 2.72492 8.29832 2.65566 8.12397 2.65566C7.94962 2.65566 7.78241 2.72492 7.65912 2.8482C7.53584 2.97149 7.46658 3.1387 7.46658 3.31305C7.46658 3.4874 7.53584 3.65461 7.65912 3.77789L8.72607 4.84375H4.18701C4.01296 4.84375 3.84604 4.91289 3.72297 5.03596C3.5999 5.15903 3.53076 5.32595 3.53076 5.5C3.53076 5.67405 3.5999 5.84097 3.72297 5.96404C3.84604 6.08711 4.01296 6.15625 4.18701 6.15625H8.72607L7.65857 7.2232C7.53529 7.34649 7.46603 7.5137 7.46603 7.68805C7.46603 7.8624 7.53529 8.02961 7.65857 8.15289C7.78186 8.27617 7.94907 8.34544 8.12342 8.34544C8.29777 8.34544 8.46498 8.27617 8.58826 8.15289L10.7758 5.96539C10.837 5.90446 10.8856 5.83204 10.9187 5.75229C10.9519 5.67254 10.969 5.58703 10.9691 5.50066C10.9691 5.41429 10.9521 5.32876 10.919 5.24897C10.886 5.16918 10.8375 5.09671 10.7763 5.0357Z" fill="#001778"/>
</svg> 