<svg width="26" height="27" viewBox="0 0 26 27" fill="none" xmlns="http://www.w3.org/2000/svg">
<path d="M25.1875 13.4999C25.1876 14.6249 24.8541 15.7246 24.2291 16.6599C23.6042 17.5953 22.7159 18.3244 21.6766 18.7549C20.6373 19.1854 19.4936 19.298 18.3903 19.0785C17.287 18.859 16.2735 18.3173 15.4781 17.5218L15.4446 17.4863L9.35594 10.6105C8.7859 10.0471 8.06197 9.66492 7.27523 9.51203C6.4885 9.35914 5.67412 9.44237 4.93457 9.75125C4.19503 10.0601 3.56337 10.5808 3.11909 11.2479C2.67481 11.9149 2.43775 12.6985 2.43775 13.4999C2.43775 14.3014 2.67481 15.0849 3.11909 15.752C3.56337 16.419 4.19503 16.9397 4.93457 17.2486C5.67412 17.5575 6.4885 17.6407 7.27523 17.4878C8.06197 17.3349 8.7859 16.9528 9.35594 16.3894L10.2213 15.4123C10.292 15.3323 10.3778 15.267 10.4738 15.2202C10.5698 15.1733 10.6741 15.1458 10.7807 15.1393C10.8873 15.1327 10.9942 15.1472 11.0952 15.182C11.1962 15.2167 11.2894 15.271 11.3694 15.3418C11.4494 15.4125 11.5147 15.4983 11.5616 15.5943C11.6085 15.6903 11.6359 15.7946 11.6425 15.9012C11.6491 16.0078 11.6345 16.1147 11.5998 16.2157C11.5651 16.3167 11.5108 16.4099 11.44 16.4899L10.5574 17.4863L10.5239 17.5218C9.72847 18.3172 8.71506 18.8588 7.6118 19.0782C6.50855 19.2976 5.36502 19.1849 4.3258 18.7544C3.28657 18.3239 2.39834 17.595 1.77342 16.6597C1.14849 15.7244 0.814941 14.6248 0.814941 13.4999C0.814941 12.3751 1.14849 11.2755 1.77342 10.3402C2.39834 9.40489 3.28657 8.67591 4.3258 8.24542C5.36502 7.81492 6.50855 7.70226 7.6118 7.92167C8.71506 8.14107 9.72847 8.6827 10.5239 9.47805L10.5574 9.5136L16.6461 16.3894C17.2161 16.9528 17.9401 17.3349 18.7268 17.4878C19.5135 17.6407 20.3279 17.5575 21.0675 17.2486C21.807 16.9397 22.4387 16.419 22.8829 15.752C23.3272 15.0849 23.5643 14.3014 23.5643 13.4999C23.5643 12.6985 23.3272 11.9149 22.8829 11.2479C22.4387 10.5808 21.807 10.0601 21.0675 9.75125C20.3279 9.44237 19.5135 9.35914 18.7268 9.51203C17.9401 9.66492 17.2161 10.0471 16.6461 10.6105L15.7808 11.5875C15.6379 11.7491 15.4366 11.8474 15.2213 11.8606C15.006 11.8738 14.7942 11.801 14.6326 11.6581C14.471 11.5152 14.3728 11.3139 14.3595 11.0986C14.3463 10.8833 14.4191 10.6715 14.562 10.5099L15.4446 9.5136L15.4781 9.47805C16.2735 8.68256 17.287 8.14081 18.3903 7.92132C19.4936 7.70183 20.6373 7.81447 21.6766 8.24497C22.7159 8.67548 23.6042 9.40452 24.2291 10.3399C24.8541 11.2753 25.1876 12.375 25.1875 13.4999Z" fill="black"/>
</svg>
