<svg width="14" height="15" viewBox="0 0 14 15" fill="none" xmlns="http://www.w3.org/2000/svg">
<g clip-path="url(#clip0_467_1730)">
<path d="M11.6948 7.36132L5.56983 13.9238C5.50492 13.9931 5.41924 14.0394 5.32573 14.0557C5.23221 14.072 5.13592 14.0574 5.0514 14.0142C4.96688 13.971 4.89871 13.9015 4.85718 13.8161C4.81565 13.7307 4.803 13.6342 4.82116 13.541L5.62287 9.53078L2.47123 8.34734C2.40355 8.32202 2.34319 8.28033 2.29555 8.22599C2.2479 8.17165 2.21447 8.10636 2.19822 8.03595C2.18197 7.96553 2.18341 7.89218 2.20242 7.82246C2.22144 7.75274 2.25742 7.68882 2.30717 7.6364L8.43217 1.0739C8.49708 1.00463 8.58276 0.958354 8.67627 0.942049C8.76979 0.925744 8.86607 0.940299 8.95059 0.983516C9.03511 1.02673 9.10328 1.09627 9.14482 1.18163C9.18635 1.26699 9.199 1.36354 9.18084 1.45671L8.37694 5.47132L11.5286 6.65312C11.5958 6.67861 11.6556 6.72025 11.7029 6.77438C11.7502 6.8285 11.7834 6.89343 11.7996 6.96344C11.8158 7.03344 11.8146 7.10637 11.7959 7.17576C11.7772 7.24516 11.7418 7.30889 11.6926 7.36132H11.6948Z" fill="white"/>
</g>
<defs>
<clipPath id="clip0_467_1730">
<rect width="14" height="14" fill="white" transform="translate(0 0.5)"/>
</clipPath>
</defs>
</svg> 