<svg width="26" height="27" viewBox="0 0 26 27" fill="none" xmlns="http://www.w3.org/2000/svg">
<path d="M13 18.375C14.2925 18.3737 15.5317 17.8596 16.4457 16.9457C17.3596 16.0317 17.8737 14.7925 17.875 13.5V7C17.875 5.70707 17.3614 4.46709 16.4471 3.55285C15.5329 2.63861 14.2929 2.125 13 2.125C11.7071 2.125 10.4671 2.63861 9.55285 3.55285C8.63861 4.46709 8.125 5.70707 8.125 7V13.5C8.12634 14.7925 8.64039 16.0317 9.55434 16.9457C10.4683 17.8596 11.7075 18.3737 13 18.375ZM9.75 7C9.75 6.13805 10.0924 5.3114 10.7019 4.7019C11.3114 4.09241 12.138 3.75 13 3.75C13.862 3.75 14.6886 4.09241 15.2981 4.7019C15.9076 5.3114 16.25 6.13805 16.25 7V13.5C16.25 14.362 15.9076 15.1886 15.2981 15.7981C14.6886 16.4076 13.862 16.75 13 16.75C12.138 16.75 11.3114 16.4076 10.7019 15.7981C10.0924 15.1886 9.75 14.362 9.75 13.5V7ZM13.8125 21.5844V24.875C13.8125 25.0905 13.7269 25.2972 13.5745 25.4495C13.4222 25.6019 13.2155 25.6875 13 25.6875C12.7845 25.6875 12.5778 25.6019 12.4255 25.4495C12.2731 25.2972 12.1875 25.0905 12.1875 24.875V21.5844C10.1843 21.3805 8.32789 20.4412 6.97718 18.9479C5.62648 17.4546 4.87747 15.5135 4.875 13.5C4.875 13.2845 4.9606 13.0778 5.11298 12.9255C5.26535 12.7731 5.47201 12.6875 5.6875 12.6875C5.90299 12.6875 6.10965 12.7731 6.26202 12.9255C6.4144 13.0778 6.5 13.2845 6.5 13.5C6.5 15.2239 7.18482 16.8772 8.40381 18.0962C9.62279 19.3152 11.2761 20 13 20C14.7239 20 16.3772 19.3152 17.5962 18.0962C18.8152 16.8772 19.5 15.2239 19.5 13.5C19.5 13.2845 19.5856 13.0778 19.738 12.9255C19.8903 12.7731 20.097 12.6875 20.3125 12.6875C20.528 12.6875 20.7347 12.7731 20.887 12.9255C21.0394 13.0778 21.125 13.2845 21.125 13.5C21.1225 15.5135 20.3735 17.4546 19.0228 18.9479C17.6721 20.4412 15.8157 21.3805 13.8125 21.5844Z" fill="black"/>
</svg>
